<?xml version="1.0" standalone="no"?>
<!DOCTYPE svg PUBLIC "-//W3C//DTD SVG 20010904//EN"
 "http://www.w3.org/TR/2001/REC-SVG-20010904/DTD/svg10.dtd">
<svg version="1.0" xmlns="http://www.w3.org/2000/svg"
 width="225.000000pt" height="225.000000pt" viewBox="0 0 225.000000 225.000000"
 preserveAspectRatio="xMidYMid meet">
<metadata>
Created by potrace 1.14, written by Peter Selinger 2001-2017
</metadata>
<g transform="translate(0.000000,225.000000) scale(0.100000,-0.100000)"
fill="#000000" stroke="none">
<path d="M2133 2215 c0 -22 2 -30 4 -17 2 12 2 30 0 40 -3 9 -5 -1 -4 -23z"/>
<path d="M712 2153 c-29 -73 -48 -134 -58 -193 -2 -14 4 -2 13 25 9 28 31 90
50 139 43 111 39 136 -5 29z"/>
<path d="M2133 2115 c0 -33 2 -45 4 -27 2 18 2 45 0 60 -2 15 -4 0 -4 -33z"/>
<path d="M1910 1880 c0 -5 -6 -10 -13 -10 -7 0 -24 -10 -37 -22 -14 -13 -27
-22 -30 -20 -3 1 -8 -37 -11 -85 -4 -49 -12 -101 -19 -118 l-12 -30 -9 24 c-8
19 -15 68 -18 115 -1 5 -8 3 -16 -4 -8 -7 -12 -16 -9 -21 10 -17 -9 -9 -22 8
-7 10 -16 15 -20 10 -4 -4 2 -17 14 -30 24 -25 29 -47 11 -47 -14 0 -40 26
-33 33 3 3 -3 3 -15 0 -12 -3 -21 -1 -21 5 0 6 -14 9 -32 7 -26 -3 -29 -2 -15
6 23 13 22 32 -2 24 -14 -4 -20 0 -24 17 l-6 23 -22 -24 c-15 -16 -24 -19 -29
-11 -5 9 -17 9 -48 -1 -34 -10 -44 -10 -58 2 -9 8 -28 12 -41 11 -15 -2 -34 5
-46 16 -12 11 -38 29 -59 40 -35 20 -37 20 -53 2 -16 -17 -13 -21 43 -80 37
-39 62 -58 66 -51 13 20 23 12 18 -14 -3 -20 -1 -24 12 -19 12 5 16 0 16 -17
0 -17 3 -20 9 -11 6 10 10 8 15 -10 7 -22 8 -21 20 12 l13 35 7 -28 c7 -31 26
-36 26 -7 0 30 14 24 27 -11 13 -33 36 -35 41 -3 7 44 13 49 25 25 7 -13 21
-29 32 -35 11 -6 31 -19 44 -28 19 -14 20 -18 7 -18 -10 0 -24 7 -32 15 -23
23 -47 18 -90 -16 -27 -21 -40 -27 -43 -17 -8 25 -25 26 -44 1 -21 -27 -31
-73 -16 -73 5 0 9 -4 9 -10 0 -5 -7 -10 -15 -10 -13 0 -13 -4 2 -26 15 -23 18
-24 28 -10 15 19 27 20 43 4 7 -7 33 -20 58 -28 50 -16 58 -32 22 -41 -22 -5
-22 -5 -3 -10 25 -7 47 0 39 12 -3 5 2 12 10 15 23 9 20 24 -5 24 -11 0 -17 5
-14 10 3 6 -3 10 -13 10 -24 0 -48 25 -33 34 6 4 20 1 31 -6 14 -9 23 -10 28
-2 9 13 53 13 45 1 -3 -6 8 -8 26 -5 17 3 36 -1 41 -7 7 -8 2 -10 -18 -7 -15
2 -43 -1 -62 -6 -27 -8 -30 -10 -12 -11 13 -1 32 -6 42 -11 10 -6 30 -11 44
-12 13 -1 23 -5 20 -9 -2 -4 -12 -5 -22 -3 -14 4 -17 -2 -15 -37 0 -23 10 -53
21 -68 23 -31 13 -63 -25 -80 -21 -9 -23 -14 -13 -26 14 -17 35 -21 25 -5 -3
6 1 7 9 4 10 -4 16 -1 16 7 0 10 3 10 12 1 14 -14 -6 -42 -31 -42 -14 0 -14
-2 -1 -10 12 -8 12 -10 -5 -11 -11 0 -14 -3 -7 -6 6 -2 12 -9 12 -14 0 -6 -5
-7 -12 -3 -7 4 -8 3 -4 -5 4 -6 12 -9 17 -6 5 3 23 7 41 9 29 3 33 0 34 -20 2
-25 -11 -33 -19 -11 -3 6 -6 2 -6 -11 -1 -12 6 -25 14 -28 8 -4 15 -10 15 -16
0 -5 -5 -6 -10 -3 -6 4 -17 1 -25 -5 -12 -10 -18 -10 -30 0 -17 14 -19 7 -5
-20 13 -24 3 -50 -16 -43 -11 4 -12 9 -5 16 13 13 14 37 2 37 -5 0 -16 -7 -25
-15 -18 -18 -29 -19 -24 -3 5 13 -19 31 -54 44 -10 3 -18 10 -18 15 0 4 8 13
18 18 13 8 8 9 -20 5 -23 -3 -38 -1 -38 5 0 6 7 8 15 5 8 -4 15 -1 15 5 0 6 8
11 18 11 24 0 76 36 63 44 -13 9 -61 -4 -61 -16 0 -5 -4 -7 -10 -3 -5 3 -25
-1 -45 -9 -20 -9 -33 -11 -30 -7 2 5 -2 11 -9 14 -8 3 -16 1 -18 -5 -3 -8 -10
-8 -25 1 -12 6 -39 11 -60 10 -33 0 -35 -2 -15 -9 12 -5 22 -14 22 -20 0 -5 6
-10 13 -10 7 0 21 -6 31 -13 18 -13 18 -14 0 -14 -11 0 -22 4 -25 10 -4 5 -12
6 -18 3 -16 -10 -14 -26 3 -20 7 3 16 -2 20 -11 3 -10 12 -15 19 -12 8 3 14
-5 15 -21 2 -22 0 -24 -10 -10 -15 18 -148 43 -178 33 -48 -15 -109 38 -97 84
3 12 0 21 -6 22 -7 1 -1 4 13 8 14 5 33 4 43 -1 10 -5 21 -7 24 -4 9 9 -8 26
-25 26 -10 0 -23 9 -30 21 -8 12 -9 18 -3 14 17 -10 13 11 -4 25 -8 7 -15 24
-15 37 0 20 -4 24 -17 18 -15 -5 -16 -4 -5 6 19 20 15 42 -5 34 -15 -5 -16 -4
-5 6 6 7 12 19 12 27 0 10 -3 10 -16 -2 -19 -19 -33 -21 -36 -3 0 6 -2 17 -3
22 -12 67 -20 95 -34 120 -19 36 -71 95 -84 95 -5 0 -19 10 -29 23 -16 18 -19
31 -14 72 3 28 2 56 -3 64 -12 18 -50 5 -61 -22 -8 -21 -9 -21 -10 3 0 31 -20
66 -20 37 0 -10 -4 -16 -9 -13 -5 3 -26 -11 -48 -32 -22 -20 -28 -27 -14 -16
14 12 32 19 40 16 8 -3 11 0 7 7 -5 7 -1 9 8 5 9 -3 13 -10 10 -15 -3 -5 1 -9
8 -10 7 -1 2 -5 -12 -9 -19 -6 -21 -8 -6 -9 18 -1 18 -2 3 -19 -10 -10 -14
-22 -10 -26 4 -4 -1 -4 -11 0 -13 5 -17 4 -13 -3 6 -10 -13 -23 -34 -23 -9 0
-2 27 15 50 6 9 0 5 -13 -10 -14 -14 -28 -24 -33 -23 -4 2 -8 -2 -8 -9 0 -6
-2 -9 -5 -6 -3 3 3 30 15 59 11 30 20 55 20 56 0 2 -23 -6 -51 -18 -29 -11
-57 -18 -63 -16 -6 2 -19 0 -28 -5 -15 -7 -18 -4 -19 19 -1 28 -1 28 -10 -5
-9 -31 -11 -32 -52 -26 -23 4 -50 14 -60 22 -13 12 -20 13 -29 4 -7 -7 -23
-12 -38 -12 -35 0 -46 -10 -54 -47 -7 -31 -5 -34 48 -68 31 -19 55 -39 55 -43
-4 -21 2 -42 12 -42 5 0 7 5 3 12 -4 6 -3 8 4 4 5 -3 12 0 15 6 3 10 7 10 20
-1 9 -7 14 -17 11 -22 -3 -5 4 -21 15 -36 11 -16 22 -41 24 -57 3 -24 8 -30
31 -31 29 -1 56 -27 56 -55 0 -25 -10 -31 -32 -19 -15 8 -24 7 -39 -7 -10 -9
-32 -17 -49 -16 -24 0 -27 -2 -17 -12 8 -10 19 -11 35 -5 30 11 35 11 27 0 -3
-5 0 -13 6 -17 6 -3 15 -1 19 6 6 9 12 4 24 -16 10 -20 15 -24 16 -11 0 20 11
22 29 5 12 -11 13 -9 7 7 -6 16 -5 17 5 8 15 -15 21 -43 8 -43 -4 0 -6 -7 -2
-16 5 -12 9 -9 18 14 7 16 18 33 24 36 12 8 34 -28 23 -38 -3 -4 2 -4 11 0 23
8 19 -15 -6 -38 -10 -9 -19 -20 -20 -25 -1 -4 -6 -8 -12 -9 -5 0 -18 -4 -28
-9 -10 -4 -52 -2 -93 5 -41 7 -77 10 -81 6 -3 -3 2 -6 12 -6 14 0 15 -3 5 -15
-7 -9 -10 -25 -6 -41 4 -14 2 -32 -4 -39 -8 -10 -7 -13 6 -11 9 0 19 -6 21
-14 4 -13 3 -13 -6 0 -7 9 -11 10 -11 3 0 -6 5 -15 11 -18 6 -4 8 -13 5 -21
-4 -11 1 -13 19 -8 16 4 25 2 25 -6 0 -6 -4 -8 -10 -5 -6 3 -7 -1 -4 -10 4
-10 14 -15 26 -12 18 5 18 4 4 -18 -20 -30 -8 -40 15 -12 l18 22 1 -22 c0 -13
5 -23 10 -23 6 0 10 5 10 11 0 5 4 8 9 4 6 -3 6 -17 0 -35 -13 -36 1 -65 33
-67 l23 -2 -26 23 c-25 21 -25 25 -13 52 l14 29 -5 -27 c-6 -31 9 -38 23 -12
5 9 15 14 21 10 6 -4 9 -11 6 -16 -8 -12 33 -102 44 -96 9 6 41 -35 41 -53 0
-18 -70 -23 -95 -7 -14 9 -31 16 -39 16 -8 0 -28 12 -45 26 -17 14 -31 22 -31
17 1 -12 67 -83 78 -83 5 0 21 -15 35 -32 50 -66 194 -208 210 -208 11 0 14
-5 10 -16 -5 -13 -2 -15 18 -9 27 9 68 37 69 47 0 4 -20 5 -45 2 -37 -3 -47 0
-52 14 -4 9 -11 20 -16 23 -5 4 -11 25 -12 47 -2 32 3 46 22 64 l24 22 -2 -35
c-3 -39 6 -59 26 -59 7 0 16 -12 20 -27 l7 -28 14 28 c15 28 30 38 21 12 -13
-34 14 -22 35 15 27 47 55 50 50 6 -2 -17 1 -25 7 -21 7 3 11 -3 11 -14 0 -12
5 -21 11 -21 11 0 9 -28 -6 -62 -14 -34 10 -18 33 22 27 47 29 116 5 178 -9
25 -12 47 -7 52 15 15 134 15 228 0 l89 -14 25 34 c29 39 200 210 211 210 3 0
12 -4 20 -9 8 -5 24 -6 37 -1 17 7 22 6 18 -4 -3 -7 24 -39 60 -71 36 -32 63
-63 59 -69 -3 -6 -2 -8 2 -3 5 4 19 0 32 -8 13 -9 27 -14 32 -11 12 8 34 -40
29 -62 -3 -12 2 -25 13 -33 23 -16 25 -33 3 -25 -12 4 -15 0 -12 -17 2 -17 9
-21 28 -19 19 1 21 0 10 -7 -8 -6 -11 -13 -7 -17 4 -4 13 -2 19 4 17 17 31 15
20 -3 -5 -10 0 -40 14 -82 13 -37 20 -71 18 -75 -10 -16 -22 -7 -27 20 -3 15
-13 36 -22 47 -16 19 -16 19 -10 -9 3 -16 8 -58 10 -94 5 -69 26 -108 54 -97
8 3 18 0 22 -7 6 -9 12 -9 26 4 24 21 63 33 63 19 0 -19 -34 -51 -41 -40 -5 8
-26 5 -70 -9 -82 -27 -179 -38 -189 -21 -10 16 -30 2 -30 -21 0 -11 14 -40 32
-65 l32 -45 138 0 138 0 0 595 0 595 -53 -30 c-41 -23 -61 -29 -85 -24 -25 5
-39 0 -69 -23 -21 -16 -58 -40 -82 -52 -43 -22 -46 -22 -58 -5 -7 10 -13 28
-13 40 0 12 -9 33 -20 47 -11 14 -20 34 -20 44 0 11 -7 28 -15 39 -21 27 -19
39 14 85 17 22 35 65 41 96 11 51 7 152 -6 188 -9 23 6 123 20 138 14 14 25
52 33 115 4 34 2 42 -11 42 -9 0 -16 -4 -16 -10z m-508 -242 c-7 -7 -12 -8
-12 -2 0 6 3 14 7 17 3 4 9 5 12 2 2 -3 -1 -11 -7 -17z m242 -153 c-6 -14 -37
-25 -69 -24 -19 0 -18 1 2 9 12 5 28 18 35 29 9 14 16 17 24 10 7 -6 11 -16 8
-24z m-1090 -42 c6 3 12 -3 13 -12 2 -24 8 -45 16 -58 6 -9 3 -11 -7 -7 -9 3
-16 17 -16 31 0 13 -4 22 -9 19 -11 -7 -29 36 -22 54 4 11 7 8 9 -8 2 -13 9
-22 16 -19z m90 -80 c5 -42 4 -53 -7 -53 -16 0 -31 56 -20 74 4 6 6 20 4 31
-2 13 1 17 7 10 5 -5 12 -34 16 -62z m46 39 c9 -21 9 -24 -3 -14 -8 7 -16 9
-19 7 -3 -3 -8 3 -10 13 -8 28 18 23 32 -6z m140 -28 c0 -15 -47 -84 -57 -84
-17 0 -16 15 2 30 8 7 15 18 15 24 0 7 5 17 12 24 12 12 28 16 28 6z m923
-107 c4 3 7 -1 7 -11 0 -15 -2 -15 -25 0 -14 9 -22 21 -18 27 4 6 11 4 18 -6
7 -9 15 -14 18 -10z m-3 -187 c-8 -5 -19 -10 -25 -10 -5 0 -3 5 5 10 8 5 20
10 25 10 6 0 3 -5 -5 -10z m-255 -56 c12 -5 14 -9 4 -14 -15 -10 -41 -1 -33
11 6 11 8 11 29 3z m418 -10 c3 -3 -9 -20 -27 -37 -17 -18 -41 -45 -52 -61
l-21 -30 -12 23 c-11 20 -8 27 32 67 41 41 65 52 80 38z m-433 -55 c0 -5 -4
-9 -10 -9 -5 0 -10 7 -10 16 0 8 5 12 10 9 6 -3 10 -10 10 -16z m413 -20 c-12
-12 -6 -49 9 -49 5 0 7 -4 4 -9 -3 -4 6 -13 20 -20 20 -9 25 -17 20 -35 -5
-20 -2 -23 25 -21 36 2 45 -8 23 -29 -23 -24 -38 -20 -52 14 -8 17 -20 30 -29
30 -8 0 -17 9 -20 20 -3 11 -14 20 -24 20 -11 0 -19 7 -19 16 0 21 32 74 44
74 6 0 6 -4 -1 -11z m-313 -14 c14 -16 10 -18 -14 -9 -9 3 -16 10 -16 15 0 14
16 11 30 -6z m-330 -10 c9 -11 10 -15 1 -15 -7 0 -19 7 -27 15 -13 13 -13 15
-1 15 8 0 20 -7 27 -15z m-34 -22 c-7 -7 -26 7 -26 19 0 6 6 6 15 -2 9 -7 13
-15 11 -17z m22 -47 c16 -17 19 -26 10 -29 -8 -3 -6 -6 5 -6 9 -1 17 -8 17
-16 0 -7 7 -18 16 -23 11 -6 13 -11 5 -16 -6 -4 -11 -13 -11 -19 0 -9 2 -9 8
0 5 8 15 8 40 -2 30 -13 44 -35 23 -35 -5 0 -12 -8 -15 -18 -4 -10 -12 -19
-19 -19 -6 0 -31 -4 -54 -7 l-43 -7 0 41 c0 25 4 39 10 35 6 -3 10 -1 10 4 0
6 -5 11 -11 11 -5 0 -7 4 -4 10 6 9 -21 59 -38 71 -5 3 -1 9 8 13 10 3 15 12
11 21 -8 22 6 18 32 -9z m299 2 c-3 -8 -6 -5 -6 6 -1 11 2 17 5 13 3 -3 4 -12
1 -19z m46 8 c9 1 17 -4 17 -12 0 -9 -5 -12 -10 -9 -6 4 -17 1 -25 -5 -13 -10
-15 -8 -15 16 0 16 4 24 8 18 4 -6 15 -10 25 -8z m-268 -66 c3 -5 2 -10 -4
-10 -5 0 -13 5 -16 10 -3 6 -2 10 4 10 5 0 13 -4 16 -10z m905 -82 c0 -4 -8
-6 -18 -5 -10 0 -18 8 -18 18 0 13 4 14 18 5 10 -6 18 -14 18 -18z m-1300
-145 c0 -20 -3 -24 -11 -16 -7 7 -9 19 -6 27 10 24 17 19 17 -11z"/>
<path d="M808 1733 c7 -3 16 -2 19 1 4 3 -2 6 -13 5 -11 0 -14 -3 -6 -6z"/>
<path d="M1320 1605 c0 -8 5 -15 10 -15 6 0 10 7 10 15 0 8 -4 15 -10 15 -5 0
-10 -7 -10 -15z"/>
<path d="M2212 1565 c0 -16 2 -22 5 -12 2 9 2 23 0 30 -3 6 -5 -1 -5 -18z"/>
<path d="M1280 1556 c0 -2 7 -7 16 -10 8 -3 12 -2 9 4 -6 10 -25 14 -25 6z"/>
<path d="M1303 1532 c-13 -2 -23 -8 -23 -13 0 -5 -7 -9 -15 -9 -8 0 -15 -6
-15 -14 0 -24 28 -39 65 -33 19 3 35 2 35 -4 0 -5 -4 -9 -10 -9 -5 0 -10 -5
-10 -12 0 -6 9 -3 21 8 11 10 16 20 10 22 -5 2 -8 9 -5 16 8 20 -28 53 -53 48z
m-8 -42 c3 -6 -1 -7 -9 -4 -18 7 -21 14 -7 14 6 0 13 -4 16 -10z"/>
<path d="M2201 1504 c0 -11 3 -14 6 -6 3 7 2 16 -1 19 -3 4 -6 -2 -5 -13z"/>
<path d="M1205 1500 c-3 -6 1 -7 9 -4 18 7 21 14 7 14 -6 0 -13 -4 -16 -10z"/>
<path d="M477 1453 c-6 -11 -6 -65 1 -59 2 3 6 19 8 36 4 29 0 38 -9 23z"/>
<path d="M1260 1446 c0 -2 11 -6 25 -8 14 -3 25 -1 25 3 0 5 -11 9 -25 9 -14
0 -25 -2 -25 -4z"/>
<path d="M492 1368 c2 -17 8 -33 14 -35 6 -2 8 10 6 32 -5 44 -24 47 -20 3z"/>
<path d="M358 1359 c-11 -12 -13 -19 -5 -22 8 -2 6 -9 -6 -21 -9 -10 -17 -22
-17 -27 0 -17 19 -9 40 18 16 21 23 24 30 14 10 -18 -37 -72 -56 -64 -8 3 -14
0 -14 -6 0 -22 29 -23 51 -2 13 12 31 21 40 21 24 0 34 19 15 26 -9 3 -16 15
-16 26 0 10 5 16 10 13 6 -3 10 -1 10 4 0 6 -3 11 -7 12 -27 2 -47 9 -52 16
-3 5 -14 1 -23 -8z"/>
<path d="M1507 1359 c7 -7 15 -10 18 -7 3 3 -2 9 -12 12 -14 6 -15 5 -6 -5z"/>
<path d="M1548 1343 c7 -3 16 -2 19 1 4 3 -2 6 -13 5 -11 0 -14 -3 -6 -6z"/>
<path d="M475 1303 c11 -3 25 -13 32 -22 9 -12 14 -13 23 -4 19 18 2 33 -38
32 -22 -1 -29 -3 -17 -6z"/>
<path d="M460 1278 c0 -22 14 -36 43 -43 30 -8 57 8 57 33 0 13 -3 12 -20 -3
-20 -18 -21 -18 -50 4 -20 14 -30 17 -30 9z"/>
<path d="M400 1150 c0 -14 -5 -18 -17 -13 -10 3 -15 3 -12 -1 10 -11 61 -18
55 -7 -4 5 -1 13 5 17 8 4 7 9 -2 15 -22 13 -29 11 -29 -11z"/>
<path d="M1650 1110 c-8 -5 -11 -12 -8 -16 10 -9 38 3 38 16 0 12 -10 13 -30
0z"/>
<path d="M300 939 c0 -6 -12 -24 -27 -40 -16 -16 -28 -39 -29 -52 -1 -12 -4
-29 -7 -37 -3 -8 -7 -22 -10 -30 -2 -8 -12 -15 -23 -15 -24 0 -32 -40 -10 -48
9 -4 28 0 43 8 16 7 47 21 70 30 34 14 41 21 38 41 -1 14 0 22 3 20 6 -7 42
13 42 23 0 11 -62 -10 -83 -28 -26 -21 -37 -4 -20 29 8 17 19 30 24 30 6 0 7
-6 3 -12 -6 -10 -5 -10 8 0 9 7 15 28 15 52 0 32 -3 40 -18 40 -11 0 -19 -5
-19 -11z"/>
<path d="M427 903 c-11 -20 -19 -75 -9 -69 12 7 27 65 19 72 -3 3 -7 2 -10 -3z"/>
<path d="M434 809 c-3 -6 0 -15 7 -20 29 -18 39 -7 15 17 -11 10 -17 11 -22 3z"/>
<path d="M53 711 c-24 -4 -46 -11 -50 -15 -10 -10 77 3 97 15 17 9 13 9 -47 0z"/>
<path d="M915 459 c-4 -6 -5 -12 -2 -15 7 -7 37 7 37 17 0 13 -27 11 -35 -2z"/>
<path d="M567 420 c2 -14 8 -41 12 -60 l9 -35 1 43 c0 23 -3 42 -8 42 -5 0
-12 8 -14 18 -2 9 -2 6 0 -8z"/>
<path d="M720 407 c0 -18 26 -59 47 -72 12 -9 23 -21 23 -29 0 -7 9 -21 20
-31 11 -10 20 -13 20 -8 0 6 -7 16 -15 23 -8 7 -15 19 -15 26 0 8 -4 14 -8 14
-4 0 -22 19 -40 42 -18 23 -32 39 -32 35z"/>
<path d="M629 333 c-8 -9 -9 -14 -2 -10 7 5 9 0 6 -13 -4 -16 -8 -18 -19 -9
-11 9 -14 8 -14 -5 0 -9 5 -17 10 -17 6 -1 14 -2 19 -3 6 0 28 -25 49 -54 36
-48 49 -72 66 -124 3 -10 13 -18 23 -17 11 0 13 3 6 6 -8 2 -13 22 -13 45 0
47 -19 118 -32 118 -4 0 -8 7 -8 14 0 15 -28 48 -61 74 -13 10 -19 9 -30 -5z"/>
<path d="M830 241 c0 -5 7 -24 16 -42 l15 -34 -5 34 c-4 18 -6 37 -6 42 0 5
-4 9 -10 9 -5 0 -10 -4 -10 -9z"/>
<path d="M515 179 c-9 -14 -2 -20 14 -10 8 6 9 11 3 15 -6 3 -14 1 -17 -5z"/>
<path d="M578 173 c-19 -5 -42 -60 -27 -68 5 -4 9 2 10 12 1 10 6 2 13 -18 6
-19 23 -50 38 -67 25 -30 30 -32 99 -32 l72 0 -47 43 c-25 24 -46 50 -46 58 0
8 -9 20 -20 27 -11 7 -20 18 -20 26 0 12 -33 28 -50 25 -3 -1 -13 -3 -22 -6z"/>
<path d="M867 143 c-4 -3 6 -18 21 -32 16 -14 39 -42 52 -61 29 -43 39 -50 68
-50 20 0 22 2 11 23 -15 28 -119 127 -134 127 -7 0 -15 -3 -18 -7z"/>
</g>
</svg>
